{"glyphs":{"0":{"ha":829,"x_min":1,"x_max":744,"o":"m 383 1003 q 446 1010 413 1022 q 519 978 490 992 q 588 936 549 964 q 654 869 626 907 q 697 792 671 847 q 731 713 724 738 q 744 489 756 622 q 689 232 732 356 q 636 113 667 168 q 561 8 604 57 q 460 -70 518 -42 q 333 -99 401 -99 q 185 -51 250 -99 q 79 72 121 -4 q 1 411 3 213 q 20 593 1 503 q 77 768 39 683 q 183 916 115 853 q 340 1004 251 979 q 383 1003 363 1011 m 379 871 q 204 710 268 839 q 140 413 140 582 q 201 139 142 249 q 333 40 256 40 q 460 102 401 40 q 558 278 518 164 q 606 500 596 383 q 597 676 615 617 q 572 732 593 689 q 543 786 551 775 q 486 838 519 818 q 397 879 454 857 q 379 871 389 874 z "},"1":{"ha":340,"x_min":-3,"x_max":260,"o":"m 24 922 q 33 932 29 926 q 47 947 38 938 l 65 969 q 175 1025 117 1025 q 238 990 215 1025 q 249 965 244 979 q 254 928 253 950 q 258 844 258 897 q 259 788 260 811 q 258 742 258 765 l 258 717 q 255 494 258 640 q 251 272 251 349 q 257 51 251 196 q 239 0 258 22 q 192 -22 221 -21 q 141 -5 163 -24 q 118 43 119 14 q 113 267 113 189 q 116 492 113 344 q 119 717 119 640 l 119 736 q 120 775 119 756 q 119 822 121 794 q 110 814 115 818 q 59 799 88 796 q 13 824 31 801 q -3 876 -6 847 q 24 922 0 904 z "},"2":{"ha":797,"x_min":-1,"x_max":715,"o":"m 24 808 q 51 833 28 813 l 90 867 l 129 897 q 176 933 153 917 q 222 961 199 949 q 517 975 389 1056 q 603 871 565 944 q 639 736 640 797 q 600 561 636 631 q 497 444 564 493 q 383 375 471 425 q 276 301 315 335 q 178 150 226 258 q 171 134 174 142 q 167 124 168 126 q 164 121 165 121 q 169 111 167 115 q 196 113 179 111 q 292 118 231 114 q 356 122 319 119 q 414 126 393 125 q 436 128 435 128 q 653 111 472 129 q 700 85 682 108 q 715 34 718 63 q 690 -12 713 6 q 639 -28 667 -31 q 442 -11 463 -10 q 419 -12 439 -11 q 365 -16 400 -14 q 300 -21 329 -18 q 203 -26 239 -25 q 168 -28 181 -28 l 156 -28 q 132 -25 143 -28 q 65 20 92 -12 q 29 89 39 53 q 26 112 26 100 q 26 135 25 124 q 30 156 28 146 q 36 174 32 165 q 42 189 40 183 q 47 200 44 194 l 50 206 q 185 407 111 343 q 313 494 235 449 q 415 557 396 542 q 477 626 456 586 q 500 739 499 667 q 479 807 500 765 q 442 858 458 847 q 290 840 385 894 l 253 817 q 214 788 235 804 l 181 761 l 144 731 l 113 703 q 63 687 92 685 q 15 710 33 689 q -1 761 -3 732 q 24 808 1 790 z "},"3":{"ha":751,"x_min":3,"x_max":661,"o":"m 133 200 q 292 89 201 107 q 465 144 383 71 q 524 226 510 185 q 525 325 538 268 q 463 360 521 346 l 422 368 l 383 376 q 294 417 325 392 q 268 481 264 443 q 314 542 272 525 q 354 550 329 547 q 379 551 376 551 q 381 553 379 553 q 469 618 436 583 q 490 681 482 631 q 493 746 499 729 q 452 800 483 775 q 372 838 421 825 q 278 846 322 850 q 204 825 233 842 q 182 806 192 817 q 156 776 172 796 q 121 739 140 757 q 72 718 101 718 q 23 738 43 718 q 3 788 3 758 q 24 836 3 817 q 46 863 25 839 q 89 908 67 886 q 132 942 111 929 q 265 983 188 978 q 407 972 343 990 q 542 906 482 951 q 626 788 603 860 q 628 657 642 739 q 569 521 613 565 q 529 485 551 503 q 661 356 640 449 q 557 42 701 171 q 265 -47 425 -78 q 22 117 122 -19 q 9 169 4 140 q 37 215 14 197 q 88 227 60 232 q 133 200 117 222 z "},"4":{"ha":847,"x_min":-22,"x_max":765,"o":"m 582 971 q 613 511 611 792 l 613 482 q 697 485 676 485 q 746 464 726 485 q 765 414 765 443 q 744 365 765 385 q 694 346 724 346 q 613 343 675 346 q 619 64 614 183 q 601 13 621 35 q 553 -10 582 -8 q 503 8 525 -11 q 481 56 482 28 q 474 333 475 164 q 353 329 418 331 q 144 333 219 325 q 60 351 93 340 q -15 410 6 371 q -22 446 -22 426 l -22 458 q -18 481 -21 467 l -7 531 l 4 579 l 8 594 l 10 597 q 39 792 22 665 q 64 969 56 918 q 91 1015 68 997 q 142 1027 114 1032 q 188 999 171 1022 q 200 947 206 976 q 175 768 192 896 q 146 572 158 640 q 143 561 146 569 l 139 544 l 128 499 l 124 478 q 161 472 139 475 q 349 468 225 464 q 474 474 414 469 l 474 510 q 446 949 472 781 q 458 1001 440 978 q 503 1028 475 1024 q 555 1016 532 1033 q 582 971 578 999 z "},"5":{"ha":843,"x_min":4,"x_max":761,"o":"m 100 997 q 417 999 211 993 q 692 1006 622 1006 q 741 985 721 1006 q 761 936 761 965 q 741 887 761 907 q 692 867 721 867 q 441 861 613 867 q 181 857 269 856 q 163 600 181 854 q 197 613 183 608 q 504 611 367 664 q 635 518 582 581 q 706 364 688 456 q 703 210 721 283 q 640 85 685 138 q 535 -6 596 32 q 406 -62 475 -44 q 268 -75 336 -79 q 147 -47 201 -71 q 33 19 93 -22 q 5 65 10 36 q 17 117 0 93 q 62 145 33 140 q 114 133 90 150 q 199 83 164 99 q 276 64 235 67 q 436 94 363 58 q 547 197 510 131 q 569 336 583 263 q 454 481 549 444 q 236 479 361 517 q 168 451 222 475 q 129 435 140 439 l 113 428 q 100 425 106 425 q 85 424 93 424 q 46 436 64 424 q 14 542 -4 472 q 17 557 15 551 q 20 563 19 563 q 21 564 21 564 l 21 567 l 33 711 q 43 885 42 824 q 28 931 26 906 q 50 979 29 960 q 100 997 71 999 z "},"6":{"ha":724,"x_min":-25,"x_max":601,"o":"m 106 400 q 111 268 103 332 q 219 83 133 129 q 425 107 304 39 q 426 108 425 108 q 433 117 426 108 q 446 138 439 126 q 471 190 463 169 q 501 314 494 263 q 493 410 508 365 q 435 481 478 456 q 362 506 400 501 q 283 496 324 510 q 206 462 243 482 q 119 408 169 442 q 106 400 113 403 m 138 583 q 507 600 343 697 q 601 146 715 475 q 565 68 590 113 q 494 -12 531 7 q 317 -71 404 -64 q 156 -39 231 -78 q 36 74 82 -1 q -25 249 -11 149 q -21 523 -46 382 q 77 792 4 664 q 260 1001 150 921 q 312 1015 283 1019 q 358 987 340 1010 q 370 935 375 964 q 343 890 365 907 q 138 583 199 782 z "},"7":{"ha":801,"x_min":-26,"x_max":717,"o":"m 39 968 q 500 979 254 979 l 581 979 l 582 979 q 607 986 585 982 q 713 939 683 1001 q 717 885 725 914 q 707 863 714 875 q 686 826 700 847 q 624 747 665 797 q 581 693 606 724 l 540 644 q 522 622 526 628 q 397 378 440 497 q 311 75 357 267 q 280 31 304 46 q 227 23 256 17 q 184 53 199 29 q 175 106 169 78 q 268 430 221 300 q 406 697 315 560 q 515 835 408 703 l 521 840 l 500 840 q 47 829 281 840 q -3 847 18 828 q -26 895 -25 867 q -8 945 -28 924 q 39 968 11 967 z "},"8":{"ha":763,"x_min":-6,"x_max":669,"o":"m 304 1010 q 367 1031 329 1038 q 450 1017 443 1019 q 529 964 475 1008 q 628 852 594 913 q 653 707 663 792 q 513 497 636 572 q 635 394 593 464 q 667 306 650 372 q 669 119 693 203 q 578 -19 646 36 q 429 -89 517 -71 q 253 -87 343 -107 q 121 -25 181 -72 q 31 86 61 22 q -6 225 0 150 q 22 371 -11 300 q 125 483 54 438 l 118 492 q 72 567 88 522 q 57 654 57 613 q 63 739 57 696 q 103 861 74 803 q 176 954 132 921 q 304 1010 235 999 m 285 407 q 226 382 250 394 q 150 313 167 353 q 155 149 113 232 q 281 49 197 65 q 401 47 349 36 q 489 88 454 58 q 533 269 564 150 q 518 322 521 317 q 465 367 499 353 q 367 392 431 382 q 285 407 297 404 m 378 881 q 343 874 364 878 q 316 870 322 871 q 299 866 310 869 q 281 858 288 863 q 260 843 272 853 q 224 794 242 829 q 200 715 207 760 q 218 586 185 624 q 279 551 240 564 l 333 569 q 467 634 425 601 q 514 724 508 667 q 503 792 519 763 q 443 856 486 821 l 404 886 q 399 888 401 886 q 378 881 389 882 z "},"9":{"ha":735,"x_min":-22,"x_max":644,"o":"m 503 535 l 508 565 q 496 753 525 683 q 372 854 464 826 q 314 864 353 860 q 267 867 275 868 q 198 816 235 858 q 136 711 161 774 q 113 597 113 643 q 135 528 114 550 q 288 476 186 471 q 481 529 378 481 q 503 535 492 533 m 451 368 q 294 338 369 342 q 32 433 129 329 q -19 537 -7 476 q -22 652 -31 597 q 7 763 -14 707 q 99 914 40 846 q 231 1000 158 982 q 328 1003 264 1010 q 411 988 378 997 q 624 807 567 940 q 644 546 668 701 q 153 -74 575 88 q 99 -72 125 -83 q 63 -33 74 -60 q 65 20 53 -6 q 103 57 76 46 q 451 368 353 151 z "}," ":{"ha":417,"x_min":0,"x_max":0,"o":""},"!":{"ha":315,"x_min":71,"x_max":233,"o":"m 210 979 q 233 347 233 732 q 213 298 233 318 q 164 278 193 278 q 115 298 135 278 q 94 347 94 318 q 71 965 94 717 q 87 1017 68 994 q 134 1042 106 1039 q 185 1026 163 1044 q 210 979 207 1007 m 213 128 q 223 118 213 128 q 233 79 233 108 q 213 30 233 50 q 164 10 193 10 q 115 30 135 10 q 94 79 94 50 q 115 128 94 108 q 164 149 135 149 q 213 128 193 149 z "},"\"":{"ha":464,"x_min":1,"x_max":382,"o":"m 140 965 q 149 649 146 813 q 129 599 149 619 q 81 578 110 578 q 31 597 51 578 q 10 646 10 617 q 1 960 7 808 q 20 1010 0 989 q 69 1032 40 1031 q 118 1013 97 1033 q 140 965 139 993 m 375 972 q 382 647 382 836 q 362 598 382 618 q 313 578 342 578 q 263 598 283 578 q 243 647 243 618 q 236 964 243 818 q 254 1015 235 993 q 302 1038 274 1036 q 352 1019 331 1039 q 375 972 374 1000 z "},"#":{"ha":1092,"x_min":-29,"x_max":1010,"o":"m 579 438 q 603 644 593 549 q 354 636 474 642 l 340 511 q 326 418 335 468 q 579 438 553 435 m 561 297 l 422 286 q 304 278 332 279 l 267 56 q 240 9 263 26 q 188 -3 217 -8 q 142 24 160 1 q 131 75 125 47 q 161 268 139 135 q 56 261 106 264 q 5 279 26 260 q -18 327 -17 299 q 0 377 -19 356 q 47 400 19 399 q 185 408 128 404 q 201 528 196 474 l 214 628 q 46 615 129 622 q -4 631 18 613 q -29 678 -26 650 q -13 729 -32 707 q 35 754 6 751 q 232 768 131 763 q 265 978 247 886 q 295 1022 271 1006 q 347 1032 319 1038 q 391 1002 375 1026 q 401 950 407 978 q 372 776 386 872 q 614 783 489 781 q 622 911 619 846 q 645 960 624 940 q 695 978 667 979 q 743 955 724 976 q 761 906 763 933 q 754 786 758 843 q 940 788 843 788 q 990 767 969 788 q 1010 718 1010 747 q 990 669 1010 689 q 940 649 969 649 q 742 647 836 649 q 719 446 733 554 q 926 454 832 453 q 976 435 956 454 q 997 386 997 415 q 978 336 997 357 q 929 315 958 315 q 701 306 825 314 l 664 26 q 637 -19 660 -1 q 585 -33 614 -36 q 540 -6 557 -29 q 525 46 522 17 l 561 297 z "},"$":{"ha":929,"x_min":-31,"x_max":843,"o":"m 332 661 q 331 906 331 794 q 194 824 253 885 q 160 776 178 804 q 140 736 142 747 q 143 712 138 721 q 167 693 149 703 q 283 667 200 676 q 332 661 301 664 m 474 504 q 476 325 474 469 q 479 103 478 181 q 532 118 506 110 q 678 213 633 151 q 701 350 724 274 q 647 436 686 404 q 544 488 608 469 q 474 504 513 497 m 471 1050 q 776 919 631 1029 q 803 874 800 903 q 790 822 807 846 q 745 795 774 799 q 693 808 717 792 q 469 911 582 892 q 471 644 469 792 q 583 621 535 635 q 835 389 785 563 q 842 244 854 308 q 789 128 831 179 q 694 42 747 76 q 576 -14 642 7 q 481 -37 529 -29 l 481 -179 q 460 -228 481 -208 q 411 -249 440 -249 q 362 -228 382 -249 q 342 -179 342 -208 l 342 -46 q 74 44 176 -39 q 45 72 58 57 q 21 104 32 86 l 3 133 q -14 164 -3 143 l -25 186 q -31 240 -39 213 q 3 281 -22 267 q 56 286 29 294 q 97 253 83 278 q 112 224 103 243 q 124 199 121 206 q 135 183 128 193 q 148 165 142 172 q 163 153 154 158 q 340 93 225 100 q 337 326 339 175 q 333 521 335 476 l 267 528 q 106 569 160 542 q 24 640 54 594 q 1 753 -6 686 q 42 849 7 794 q 94 918 67 890 q 332 1049 196 1026 q 333 1156 332 1103 q 354 1204 333 1185 q 404 1224 375 1224 q 453 1203 433 1224 q 472 1153 472 1182 q 471 1050 471 1103 z "},"%":{"ha":1038,"x_min":29,"x_max":956,"o":"m 190 1000 q 246 1022 213 1025 l 257 1022 l 278 1022 q 342 1011 314 1022 q 439 922 407 983 q 471 790 471 860 q 438 663 469 724 q 344 572 406 601 q 217 552 278 540 q 113 602 157 564 q 46 693 68 640 q 30 807 25 751 q 76 915 35 863 q 190 1000 118 968 m 678 307 q 671 303 674 304 q 633 238 644 276 q 628 165 622 199 q 711 103 640 101 q 790 164 769 104 q 797 223 801 193 q 772 275 792 253 q 747 295 760 289 q 722 303 733 301 q 678 307 711 304 m 772 433 q 875 367 832 415 q 933 245 922 315 q 922 117 944 175 q 844 8 899 51 q 714 -36 789 -35 q 565 13 622 -37 q 492 139 507 63 q 501 278 479 207 q 574 400 522 350 q 596 419 583 411 q 654 449 618 449 l 663 453 l 681 460 q 732 465 706 474 q 772 433 758 457 m 261 879 q 203 849 225 867 q 174 812 181 831 q 167 777 167 793 q 174 747 168 761 q 221 696 189 710 q 283 697 253 682 q 317 733 303 707 q 332 793 331 758 q 319 851 332 828 q 288 883 307 875 l 278 883 l 269 883 q 261 879 265 881 m 68 99 l 833 1007 q 882 1031 853 1029 q 933 1013 911 1032 q 956 965 954 994 q 939 915 957 936 l 174 10 q 127 -15 156 -12 q 76 1 99 -18 q 51 48 54 19 q 68 99 49 76 z "},"&":{"ha":885,"x_min":17,"x_max":803,"o":"m 356 536 q 222 410 267 460 q 160 323 182 364 q 133 235 139 282 q 147 144 128 189 q 306 60 189 35 q 419 110 363 71 q 507 197 476 150 q 522 222 515 210 q 475 317 510 246 l 422 424 q 356 536 401 464 m 675 228 q 785 67 728 131 q 803 17 804 46 q 780 -31 801 -11 q 730 -49 758 -50 q 682 -25 701 -47 q 597 86 638 24 q 478 -17 549 26 q 333 -76 408 -61 q 241 -83 289 -89 q 151 -60 193 -78 q 74 -2 110 -42 q 17 94 39 38 q 119 501 -61 297 q 267 642 171 560 l 283 657 q 242 744 258 703 q 215 822 226 779 q 206 875 208 853 q 214 942 203 915 q 269 1009 232 982 q 350 1049 307 1036 q 522 1022 453 1078 q 574 958 557 996 q 589 885 590 919 q 581 818 588 851 q 494 660 558 726 l 463 629 q 544 490 524 529 l 579 424 q 583 472 582 446 q 608 519 586 500 q 659 535 631 538 q 706 510 688 532 q 722 458 725 488 q 675 228 710 319 m 344 890 l 344 889 q 350 857 346 876 q 369 797 358 822 l 390 753 l 394 757 q 446 851 433 796 q 436 914 458 897 q 386 914 422 925 q 344 890 358 907 z "},"'":{"ha":279,"x_min":54,"x_max":197,"o":"m 193 961 q 197 724 190 867 q 179 673 199 694 q 131 650 160 651 q 81 668 103 649 q 58 715 60 688 q 54 967 51 860 q 76 1015 56 994 q 126 1033 97 1035 q 174 1011 154 1032 q 193 961 194 990 z "},"(":{"ha":399,"x_min":28,"x_max":315,"o":"m 293 1010 q 165 631 199 847 q 168 200 132 415 q 306 -171 204 -14 q 315 -223 321 -194 q 285 -267 310 -251 q 233 -276 261 -282 q 189 -246 204 -271 q 32 174 74 -68 q 28 656 -10 415 q 174 1079 67 896 q 215 1112 188 1104 q 268 1105 243 1119 q 301 1063 293 1090 q 293 1010 308 1035 z "},")":{"ha":385,"x_min":-29,"x_max":300,"o":"m 171 1083 q 300 404 322 764 q 99 -257 278 44 q 56 -288 83 -281 q 3 -281 28 -296 q -28 -237 -21 -265 q -21 -185 -36 -210 q 161 414 142 88 q 46 1022 182 735 q 42 1076 33 1049 q 78 1115 51 1103 q 131 1119 104 1128 q 171 1083 158 1110 z "},"*":{"ha":686,"x_min":-37,"x_max":600,"o":"m 126 769 l 19 788 q -25 815 -8 792 q -37 867 -42 839 q -8 913 -32 896 q 44 924 15 929 q 150 907 101 914 q 147 997 149 947 q 167 1047 147 1026 q 215 1068 186 1068 q 265 1049 244 1068 q 286 1000 286 1029 q 289 896 288 939 q 511 954 383 910 q 565 951 539 964 q 600 912 590 939 q 597 859 610 885 q 558 824 585 833 q 338 763 436 779 l 499 594 q 518 545 518 574 q 497 497 518 517 q 448 476 476 476 q 399 497 419 476 l 229 675 q 97 508 156 600 q 53 478 82 483 q 1 488 25 472 q -29 531 -24 503 q -19 583 -35 560 q 126 769 46 685 z "},"+":{"ha":811,"x_min":-10,"x_max":729,"o":"m 299 356 q 63 347 156 351 q 13 365 33 346 q -10 414 -8 385 q 8 464 -11 443 q 57 486 28 485 q 297 494 150 490 q 292 725 296 594 q 310 775 290 754 q 359 797 331 796 q 408 778 388 799 q 431 731 429 758 q 436 499 435 601 q 657 507 568 503 q 707 489 686 508 q 729 440 728 469 q 711 390 731 411 q 663 368 692 369 q 438 360 572 364 q 433 107 438 225 q 411 58 432 78 q 361 40 390 39 q 313 63 332 42 q 294 113 293 83 q 299 356 299 228 z "},",":{"ha":349,"x_min":39,"x_max":263,"o":"m 261 79 l 218 -29 q 168 -144 189 -103 q 127 -180 154 -171 q 74 -176 100 -189 q 40 -135 49 -162 q 43 -83 31 -108 q 89 21 64 -43 q 133 135 126 118 q 171 172 144 161 q 224 171 197 182 q 262 133 251 160 q 261 79 272 107 z "},"-":{"ha":418,"x_min":-21,"x_max":336,"o":"m 44 447 q 150 452 76 449 q 263 458 224 456 q 313 441 292 460 q 336 393 335 422 q 319 342 338 364 q 271 319 300 321 q 158 313 232 317 q 53 308 85 310 q 2 326 24 307 q -21 374 -19 346 q -3 424 -22 403 q 44 447 17 446 z "},".":{"ha":303,"x_min":82,"x_max":221,"o":"m 201 133 q 211 123 201 133 q 221 83 221 113 q 201 34 221 54 q 151 14 181 14 q 102 34 122 14 q 82 83 82 54 q 102 133 82 113 q 151 153 122 153 q 201 133 181 153 z "},"/":{"ha":503,"x_min":-31,"x_max":415,"o":"m 415 944 q 342 732 382 861 l 313 633 q 275 510 290 556 q 179 228 242 404 l 100 3 q 66 -37 92 -25 q 13 -41 40 -50 q -28 -6 -15 -32 q -31 47 -40 19 q 47 272 -17 90 q 142 551 111 453 q 179 675 156 594 l 208 772 q 288 997 250 907 q 325 1035 299 1024 q 378 1035 351 1046 q 415 997 404 1024 q 415 944 426 971 z "},":":{"ha":339,"x_min":110,"x_max":257,"o":"m 237 673 q 247 663 237 673 q 257 624 257 653 q 237 574 257 594 q 188 554 217 554 q 138 574 158 554 q 118 624 118 594 q 138 673 118 653 q 188 693 158 693 q 237 673 217 693 m 228 124 q 239 114 228 124 q 249 75 249 104 q 228 26 249 46 q 179 6 208 6 q 130 26 150 6 q 110 75 110 46 q 130 124 110 104 q 179 144 150 144 q 228 124 208 144 z "},";":{"ha":346,"x_min":39,"x_max":258,"o":"m 258 83 l 217 -24 q 167 -136 192 -90 q 126 -170 154 -161 q 74 -166 99 -179 q 40 -125 49 -153 q 44 -72 31 -97 q 88 26 64 -33 l 131 136 q 167 174 140 163 q 221 174 194 185 q 258 137 247 164 q 258 83 269 110 m 223 688 q 233 678 223 688 q 243 639 243 668 q 223 590 243 610 q 174 569 203 569 q 124 590 144 569 q 104 639 104 610 q 124 688 104 668 q 174 708 144 708 q 223 688 203 708 z "},"<":{"ha":867,"x_min":21,"x_max":785,"o":"m 757 631 q 719 601 753 626 l 678 569 l 639 540 q 596 508 608 517 l 554 481 l 508 450 l 467 422 q 419 394 439 406 l 374 372 l 325 349 q 244 317 300 338 q 272 307 269 307 l 483 206 q 693 114 608 146 q 731 77 719 103 q 733 24 743 51 q 697 -15 722 -3 q 643 -17 671 -26 q 424 79 553 18 l 214 179 q 209 182 213 181 q 199 185 206 183 q 188 190 193 188 q 131 215 156 203 q 71 249 93 232 q 21 336 19 286 q 38 379 22 360 q 49 389 43 385 q 60 396 54 393 q 69 400 64 399 q 90 408 76 404 l 147 431 q 269 476 242 464 q 416 556 336 506 q 533 636 496 607 l 674 742 q 724 755 696 758 q 770 728 753 751 q 784 677 788 706 q 757 631 781 649 z "},"=":{"ha":856,"x_min":-21,"x_max":774,"o":"m 57 590 q 383 588 156 593 q 700 589 594 582 q 751 572 729 590 q 774 524 772 553 q 756 473 775 494 q 708 450 738 451 q 381 449 594 443 q 63 451 157 454 q 13 470 33 450 q -10 519 -8 490 q 9 568 -11 547 q 57 590 29 589 m 57 233 q 216 220 128 224 q 352 217 304 217 q 522 220 400 217 q 671 224 643 224 q 721 204 700 224 q 742 156 742 185 q 722 106 742 126 q 674 85 703 85 q 527 81 651 85 q 352 78 403 78 q 208 81 301 78 q 40 94 114 85 q -6 122 11 99 q -20 173 -24 144 q 6 219 -17 201 q 57 233 29 236 z "},">":{"ha":824,"x_min":-67,"x_max":742,"o":"m 54 724 q 314 593 135 690 q 560 474 465 511 l 629 446 q 631 444 629 444 l 633 444 q 641 444 635 444 q 658 442 647 443 q 674 438 667 440 q 700 426 682 435 q 729 400 718 418 q 742 357 740 382 q 722 299 743 326 q 696 274 713 286 q 642 239 675 257 q 556 196 592 211 q 426 154 515 181 q 310 115 349 132 q 174 49 271 99 q 22 -21 82 1 q -31 -19 -4 -31 q -67 20 -57 -7 q -64 74 -76 47 q -25 110 -53 100 q 110 172 19 125 q 257 243 213 225 q 388 288 300 261 q 506 326 471 313 q 528 336 511 328 l 510 343 q 247 471 413 382 q 1 596 68 568 q -36 633 -25 607 q -36 686 -47 660 q 1 724 -25 713 q 54 724 28 735 z "},"?":{"ha":806,"x_min":64,"x_max":722,"o":"m 89 889 l 99 899 l 156 944 q 218 985 178 963 q 297 1019 258 1008 q 456 1035 375 1043 q 599 986 536 1026 q 700 869 667 943 q 722 700 733 794 q 588 438 707 575 l 531 375 q 470 306 493 333 q 431 249 447 278 q 388 217 415 225 q 335 225 360 210 q 303 268 311 240 q 311 321 296 296 q 361 390 333 357 q 431 472 389 425 l 483 529 q 583 717 574 633 q 524 869 596 824 q 336 886 449 918 q 281 862 310 879 q 235 831 253 844 l 178 783 q 127 767 156 764 q 80 792 99 769 q 64 842 61 814 q 89 889 67 871 m 410 91 q 420 81 410 91 q 431 42 431 71 q 410 -8 431 13 q 361 -28 390 -28 q 312 -8 332 -28 q 292 42 292 13 q 312 91 292 71 q 361 111 332 111 q 410 91 390 111 z "},"@":{"ha":1033,"x_min":-3,"x_max":950,"o":"m 531 663 q 438 640 475 656 q 368 592 401 624 q 323 519 343 565 q 300 429 303 472 q 313 374 299 390 q 361 354 325 356 q 465 454 421 351 q 497 549 481 492 q 507 585 506 582 q 513 601 510 594 q 521 617 517 610 q 568 646 539 642 q 635 621 608 653 q 650 589 646 607 q 651 563 651 578 q 647 525 651 556 q 646 438 643 471 q 647 424 646 431 q 647 414 647 418 q 648 407 647 410 q 649 403 649 404 l 649 399 l 649 397 l 649 396 l 650 394 q 696 382 664 371 q 740 407 718 389 q 775 444 763 425 q 814 567 810 496 q 789 710 817 639 q 711 833 761 782 q 600 904 660 886 q 408 893 533 924 q 301 850 329 875 q 194 696 242 799 q 135 476 149 594 q 147 260 119 353 q 236 118 174 165 q 444 81 310 65 q 688 147 550 93 q 740 145 714 157 q 777 107 767 133 q 776 54 788 81 q 738 17 764 28 q 460 -57 583 -43 q 156 7 272 -78 q 15 214 51 83 q -3 493 -21 344 q 69 757 13 631 q 210 956 126 883 q 375 1029 264 1001 q 639 1038 538 1068 q 808 933 735 1008 q 918 760 879 860 q 950 631 943 694 q 943 494 957 564 q 892 367 929 425 q 826 298 867 331 q 740 250 786 265 q 672 239 706 240 q 602 256 638 238 q 540 308 567 274 q 356 215 465 210 q 201 290 253 221 q 163 435 158 347 q 196 574 165 504 q 271 689 226 644 q 511 801 363 781 q 563 787 540 804 q 590 741 586 769 q 576 690 593 713 q 531 663 558 667 z "},"A":{"ha":960,"x_min":-37,"x_max":872,"o":"m 310 471 l 538 564 q 474 715 506 644 l 443 782 q 414 715 428 744 q 310 471 372 624 m 239 296 q 90 -25 157 100 q 50 -60 78 -51 q -3 -55 22 -68 q -37 -14 -29 -42 q -32 39 -46 14 q 96 315 28 153 q 94 319 94 317 q 97 371 85 346 q 133 406 108 396 q 289 774 250 689 q 349 921 324 851 q 350 947 347 922 q 363 993 353 974 q 436 1036 386 1036 q 492 1008 471 1036 q 496 1003 494 1006 q 497 999 497 1000 l 499 997 l 499 996 l 500 996 l 500 993 l 503 986 l 514 963 l 547 890 l 601 771 q 669 608 635 697 q 725 564 711 603 q 714 494 742 526 l 783 311 l 872 76 q 872 22 883 49 q 834 -15 861 -4 q 781 -14 807 -25 q 744 24 754 -3 q 653 260 711 106 q 589 435 596 414 q 239 296 326 328 z "},"B":{"ha":886,"x_min":-6,"x_max":799,"o":"m 143 490 q 393 567 267 515 q 535 642 482 604 q 586 696 582 675 q 507 813 599 760 q 406 855 463 839 q 307 874 350 871 q 158 874 242 878 q 143 492 156 763 l 143 490 m 640 547 q 774 399 731 493 q 799 201 818 306 q 693 22 779 97 q 376 -62 589 -67 q 85 -22 239 -60 q 65 -25 75 -25 q 15 -6 36 -25 q -6 43 -6 14 q 4 499 -8 207 q 19 915 18 833 q 15 935 15 925 q 28 978 14 958 q 89 1015 47 1015 q 115 1010 103 1015 q 315 1013 238 1017 q 445 988 374 1008 q 576 933 517 968 q 696 822 651 889 q 722 668 740 756 q 640 547 710 604 m 476 451 l 446 439 q 138 347 279 371 q 132 110 132 213 q 379 76 264 78 q 601 128 539 74 q 664 241 656 174 q 635 367 672 308 q 526 447 597 425 q 515 451 519 450 q 500 451 510 451 l 476 451 z "},"C":{"ha":904,"x_min":-25,"x_max":822,"o":"m 707 796 q 351 856 510 972 q 223 697 279 801 q 139 465 167 593 q 128 421 131 432 l 122 382 q 115 340 117 354 q 114 306 114 325 q 117 272 114 288 q 257 140 138 171 q 381 128 317 125 q 499 150 444 132 q 546 172 521 158 q 583 193 571 185 q 632 228 596 201 l 678 261 q 730 273 701 278 q 775 244 758 268 q 787 192 792 221 q 758 147 782 164 q 715 117 756 146 q 659 77 675 88 q 608 48 643 67 q 543 19 574 29 q 388 -10 471 -6 q 222 6 306 -14 q 65 88 131 29 q -19 244 0 147 q -24 274 -22 258 q -25 305 -25 289 q -24 334 -25 321 q -22 365 -24 347 q -18 394 -19 383 q -12 423 -17 404 q -7 449 -8 442 q -1 474 -6 456 q 3 496 3 493 q 104 768 36 642 q 269 967 172 894 q 429 1038 344 1024 q 609 1017 514 1051 q 799 899 704 983 q 822 851 821 879 q 804 801 824 822 q 756 778 785 779 q 707 796 728 776 z "},"D":{"ha":938,"x_min":4,"x_max":853,"o":"m 144 99 q 333 29 240 39 q 497 49 426 19 q 621 138 568 78 q 700 277 675 197 q 714 454 725 357 q 650 644 703 551 q 586 726 615 704 q 506 764 569 739 q 354 815 446 786 q 156 872 261 844 q 144 99 182 588 m 107 1029 q 396 947 239 996 q 554 893 494 917 q 669 838 638 863 q 769 714 719 799 q 853 471 838 596 q 833 236 867 344 q 725 44 799 128 q 546 -81 649 -40 q 317 -108 443 -122 q 68 -17 192 -94 q 36 28 42 -1 q 4 92 1 50 q 23 372 17 256 q 28 636 29 488 q 11 911 26 781 q 21 956 8 935 q 22 978 19 967 q 55 1021 31 1006 q 107 1029 79 1036 z "},"E":{"ha":835,"x_min":1,"x_max":753,"o":"m 132 965 q 408 1003 250 999 q 668 986 565 1008 q 712 957 696 981 q 722 905 728 933 q 693 860 717 876 q 640 850 669 844 q 399 865 544 871 q 153 826 253 858 q 158 701 154 797 q 161 596 161 638 q 249 603 206 601 q 349 607 293 606 q 433 608 404 608 l 531 608 l 614 608 q 663 588 643 608 q 683 539 683 568 q 663 490 683 510 q 614 469 643 469 l 539 469 l 458 469 q 386 469 433 469 q 308 467 339 468 q 237 463 276 465 q 161 457 197 461 q 156 369 160 424 q 149 268 150 293 q 144 213 149 256 q 140 154 140 176 q 142 115 139 131 l 174 115 q 206 116 189 115 q 234 117 222 117 q 247 118 246 118 q 469 114 299 119 q 679 114 597 110 q 730 97 708 115 q 753 49 751 78 q 735 -2 754 19 q 688 -25 717 -24 q 464 -25 604 -29 q 250 -21 290 -19 l 239 -22 q 209 -23 226 -22 q 176 -24 192 -24 l 122 -24 q 99 -21 108 -22 q 57 -6 74 -18 q 7 78 19 22 q 1 157 0 111 q 6 226 1 185 q 10 271 10 268 q 17 381 11 307 q 24 482 24 447 q 19 696 25 558 q 13 917 13 868 q 33 966 13 946 q 82 986 53 986 q 132 965 111 986 z "},"F":{"ha":854,"x_min":17,"x_max":772,"o":"m 139 993 q 714 1008 399 1057 q 759 981 742 1004 q 772 930 776 958 q 744 884 767 901 q 692 872 721 867 q 160 854 401 917 q 169 582 165 738 q 328 600 264 594 q 482 602 392 606 q 647 578 572 599 q 690 546 675 571 q 697 493 704 521 q 664 451 689 465 q 611 444 639 436 q 468 464 547 461 q 330 461 389 467 q 174 443 271 456 q 186 44 182 158 q 168 -6 188 15 q 119 -28 149 -26 q 69 -10 90 -29 q 47 39 49 10 l 36 450 q 17 943 29 694 q 35 994 15 972 q 82 1017 54 1015 q 139 993 117 1018 z "},"G":{"ha":950,"x_min":-62,"x_max":868,"o":"m 749 829 q 644 906 694 885 q 514 928 593 928 q 189 769 303 928 q 78 386 85 625 q 83 236 75 293 q 124 140 92 178 q 364 106 206 44 q 501 188 436 135 q 601 293 567 240 q 660 421 621 325 q 674 456 668 440 q 532 444 607 451 l 367 428 q 225 413 276 418 q 174 428 196 410 q 149 476 151 447 q 165 526 146 504 q 211 551 183 549 q 358 566 263 556 q 530 583 453 576 q 675 596 607 590 q 686 597 678 596 q 713 603 704 601 q 808 574 774 613 q 831 503 835 547 q 821 460 828 485 q 788 368 811 422 q 718 221 744 261 q 590 80 672 147 q 414 -24 507 13 q 279 -56 346 -50 q 142 -36 213 -61 q 18 51 71 -11 q -31 134 -12 86 q -55 225 -50 182 q -62 313 -60 268 q -61 389 -64 358 q 76 850 -54 671 q 514 1067 231 1067 q 698 1035 621 1067 q 849 926 775 1003 q 868 877 868 906 q 847 828 868 849 q 798 808 826 808 q 749 829 769 808 z "},"H":{"ha":982,"x_min":24,"x_max":900,"o":"m 871 979 q 889 837 883 914 q 894 694 894 760 q 893 556 893 629 q 894 547 894 551 q 893 515 897 532 l 893 453 q 897 288 893 432 q 900 69 900 144 q 880 20 900 40 q 831 0 860 0 q 781 20 801 0 q 761 69 761 40 q 758 287 761 144 q 754 450 754 429 l 754 454 q 439 408 643 436 l 167 369 q 174 32 168 176 q 156 -18 175 3 q 107 -40 136 -39 q 57 -22 78 -42 q 35 26 36 -3 q 26 527 28 203 q 24 958 25 851 q 43 1008 24 988 q 92 1029 63 1029 q 142 1010 121 1029 q 163 961 163 990 q 165 510 165 849 q 423 547 207 517 q 754 594 639 576 q 735 954 757 838 q 744 1006 729 982 q 790 1035 761 1029 q 842 1024 818 1040 q 871 979 865 1008 z "},"I":{"ha":307,"x_min":86,"x_max":225,"o":"m 225 972 q 225 14 178 504 q 209 -37 228 -15 q 162 -62 190 -60 q 111 -47 133 -65 q 86 0 89 -28 q 86 986 36 519 q 112 1033 89 1015 q 163 1049 135 1051 q 210 1023 192 1046 q 225 972 228 1000 z "},"J":{"ha":668,"x_min":-8,"x_max":585,"o":"m 564 976 q 585 724 578 867 q 583 419 592 581 q 550 165 576 261 q 448 -13 518 49 q 283 -69 378 -75 q 125 -10 200 -65 q 0 133 49 46 q -8 186 -15 158 q 25 228 0 214 q 78 235 50 243 q 119 203 106 228 q 203 106 156 140 q 290 69 250 71 q 362 96 328 67 q 417 201 396 125 q 445 430 439 283 q 445 715 451 576 q 425 957 439 853 q 440 1009 422 986 q 485 1035 457 1032 q 537 1022 514 1039 q 564 976 560 1004 z "},"K":{"ha":874,"x_min":32,"x_max":790,"o":"m 268 524 q 513 267 422 333 q 631 190 556 235 q 758 114 754 117 q 790 72 783 100 q 781 19 796 43 q 738 -12 767 -6 q 686 -3 710 -18 q 560 71 681 0 q 429 156 481 117 q 197 392 332 228 q 203 46 203 206 q 183 -3 203 17 q 133 -24 163 -24 q 84 -3 104 -24 q 64 46 64 17 q 32 954 64 283 q 50 1005 31 983 q 98 1028 69 1026 q 148 1010 126 1029 q 171 963 169 990 l 188 636 q 619 993 382 785 q 670 1009 642 1011 q 717 985 699 1007 q 734 935 736 964 q 711 888 732 907 q 268 524 469 678 z "},"L":{"ha":808,"x_min":39,"x_max":725,"o":"m 178 963 q 210 258 178 715 q 213 139 210 256 q 214 94 213 113 q 228 96 219 96 q 382 111 286 99 q 639 151 579 135 q 691 145 665 160 q 724 103 717 131 q 717 51 732 76 q 675 18 703 25 q 400 -28 607 -1 q 233 -43 299 -40 q 169 -43 194 -44 q 140 -39 153 -42 q 96 -14 113 -32 q 79 18 79 4 q 77 27 78 22 q 76 38 76 32 q 75 64 76 47 q 74 136 74 89 q 71 250 71 249 q 39 963 39 711 q 59 1012 39 992 q 108 1032 79 1032 q 158 1012 138 1032 q 178 963 178 992 z "},"M":{"ha":1228,"x_min":-21,"x_max":1140,"o":"m -21 43 q 36 210 8 117 q 78 360 64 304 l 125 542 q 165 703 156 668 l 193 821 l 213 896 q 222 924 218 914 q 228 939 225 932 l 236 953 q 243 960 239 956 q 263 973 247 965 q 296 979 279 981 q 346 954 326 976 q 356 939 351 947 q 363 922 360 932 q 369 894 365 913 q 386 819 376 868 l 396 771 q 405 727 401 743 q 408 707 408 711 q 468 447 417 676 q 524 240 497 317 q 589 458 544 301 q 668 722 642 644 l 707 836 l 731 907 q 740 931 736 922 q 744 940 742 936 l 747 949 q 754 958 751 953 q 808 983 775 983 q 864 958 842 983 q 876 939 871 950 q 890 907 883 926 q 914 833 900 881 q 944 718 922 804 q 972 608 950 699 l 1003 489 l 1032 386 q 1066 271 1053 313 q 1100 170 1079 229 q 1140 61 1121 111 q 1140 8 1151 35 q 1103 -30 1129 -19 q 1049 -29 1076 -40 q 1013 8 1022 -18 q 969 124 990 63 l 933 228 q 899 349 919 272 l 869 456 q 838 574 861 485 q 811 682 815 664 l 807 699 l 799 678 q 724 421 786 640 q 642 157 675 251 q 613 83 635 136 q 590 33 600 51 l 578 11 q 565 -3 572 3 q 514 -25 544 -25 q 460 0 481 -25 q 449 17 453 8 q 440 38 444 25 q 429 76 436 49 q 406 157 413 138 q 332 418 368 257 q 313 505 329 429 q 288 621 297 581 q 263 519 282 601 l 236 408 l 208 308 q 178 197 190 239 q 147 99 165 156 q 110 -7 128 42 q 72 -45 99 -33 q 19 -47 46 -57 q -19 -10 -7 -36 q -21 43 -31 17 z "},"N":{"ha":1014,"x_min":26,"x_max":932,"o":"m 36 10 q 26 394 22 278 q 33 508 28 424 q 39 615 39 575 q 46 736 39 663 q 56 846 54 828 q 54 850 56 847 q 52 862 54 853 q 49 875 50 871 q 49 922 44 901 q 73 965 54 947 q 119 985 92 982 q 267 913 200 992 q 304 863 283 892 q 328 826 326 828 l 422 699 l 526 558 l 614 432 q 706 290 667 356 q 765 181 725 257 q 767 219 767 197 l 767 281 l 775 447 l 783 624 q 790 785 788 690 q 793 960 793 879 q 813 1009 793 989 q 863 1029 833 1029 q 912 1009 892 1029 q 932 960 932 989 q 929 784 932 879 q 922 622 926 689 l 914 442 l 906 275 l 906 258 l 906 242 l 906 219 q 901 133 906 169 q 875 39 894 76 q 782 -35 843 -22 q 732 -26 756 -40 q 719 -17 725 -22 q 711 -7 715 -11 q 704 4 708 -3 q 692 24 700 11 l 660 85 q 586 218 607 183 q 497 358 543 289 l 410 482 l 308 618 l 217 743 q 190 783 211 750 q 187 749 189 771 q 185 724 185 728 q 178 615 178 657 q 172 499 178 571 q 165 389 167 415 q 175 18 163 292 q 158 -33 176 -11 q 110 -56 139 -54 q 59 -38 81 -57 q 36 10 38 -19 z "},"O":{"ha":1069,"x_min":17,"x_max":954,"o":"m 469 1036 q 519 1051 492 1054 q 924 863 813 1024 q 954 418 1036 699 q 906 289 935 353 q 831 158 876 225 q 731 40 785 92 q 603 -47 676 -11 q 450 -86 531 -82 q 210 -22 332 -93 q 78 112 125 26 q 17 300 31 197 q 17 488 4 392 q 64 664 31 585 q 228 897 119 792 q 469 1036 338 1001 m 529 907 q 333 804 426 889 q 192 608 239 719 q 156 469 165 546 q 154 318 144 392 q 279 97 176 157 q 442 53 365 49 q 608 120 529 58 q 739 269 688 182 q 821 457 792 354 q 810 783 885 675 q 540 910 740 885 q 529 907 535 907 z "},"P":{"ha":864,"x_min":13,"x_max":783,"o":"m 181 461 l 186 461 q 263 464 211 463 q 347 469 314 465 q 410 479 379 472 q 530 528 475 497 q 615 596 585 558 q 606 768 675 672 q 563 813 594 782 q 519 850 531 843 q 164 917 399 924 q 167 840 165 881 q 172 749 169 799 q 175 672 174 700 q 181 461 182 536 m 79 1053 q 206 1057 158 1057 q 330 1051 257 1057 q 469 1024 403 1044 q 592 969 535 1004 q 658 914 617 954 q 717 849 700 874 q 783 667 783 753 q 724 510 782 582 q 601 408 676 450 q 443 346 526 367 q 364 331 407 336 q 264 325 321 326 q 194 322 207 324 q 175 324 185 322 q 163 185 172 297 q 151 6 153 72 q 131 -43 151 -24 q 81 -62 110 -62 q 32 -42 51 -62 q 13 8 13 -21 q 24 197 14 81 q 39 378 36 335 q 38 665 46 490 q 24 947 25 921 q 14 979 15 963 q 32 1030 13 1008 q 79 1053 51 1051 z "},"Q":{"ha":1083,"x_min":13,"x_max":1001,"o":"m 619 -35 q 560 -47 590 -43 q 396 -54 460 -64 q 238 -2 307 -40 q 127 91 169 36 q 58 211 85 146 q 22 350 31 276 q 13 491 13 424 q 25 626 14 558 q 188 931 56 833 q 337 1004 257 982 q 515 1036 417 1026 l 517 1036 q 557 1040 536 1044 q 888 854 775 1001 q 1001 486 1001 707 q 893 129 1001 264 q 756 17 838 60 q 871 -117 811 -51 q 889 -167 890 -137 q 867 -215 888 -196 q 817 -233 846 -235 q 768 -211 788 -232 q 619 -35 690 -125 m 529 897 q 271 819 354 881 q 161 604 185 756 q 152 423 144 511 q 186 264 160 335 q 272 144 213 193 q 418 82 332 96 q 529 88 458 76 q 440 225 485 153 q 431 276 425 249 q 462 319 438 304 q 514 328 486 335 q 557 297 542 322 q 671 129 614 208 q 785 217 742 161 q 863 486 863 313 q 783 763 863 657 q 546 901 703 869 q 529 897 538 899 z "},"R":{"ha":999,"x_min":11,"x_max":917,"o":"m 69 1054 q 499 1051 300 1090 q 612 1021 560 1040 q 715 970 664 1001 q 801 890 765 939 q 853 779 838 840 q 824 574 881 664 q 564 396 751 458 q 903 103 754 299 q 916 52 919 81 q 890 6 913 24 q 838 -8 867 -11 q 792 19 810 -4 q 561 238 689 154 q 290 336 432 322 l 204 324 q 188 322 196 322 q 185 265 188 297 q 178 44 178 107 q 158 -5 178 15 q 108 -25 138 -25 q 59 -5 79 -25 q 39 44 39 15 q 47 272 39 111 q 51 490 53 411 q 40 722 49 571 q 29 938 32 872 q 11 976 14 953 q 23 1027 6 1004 q 69 1054 40 1050 m 204 476 q 285 476 244 479 q 486 518 406 496 q 707 649 656 567 q 717 746 732 688 q 472 915 686 874 q 169 926 336 942 l 181 722 q 190 493 188 574 l 190 474 q 204 476 197 476 z "},"S":{"ha":929,"x_min":-31,"x_max":843,"o":"m 693 808 q 520 899 608 872 q 346 908 432 926 q 194 824 260 890 q 160 776 178 804 q 140 736 142 747 q 143 712 138 721 q 167 693 149 703 q 283 667 200 676 q 367 658 300 664 q 486 643 433 651 q 583 621 539 635 q 835 389 785 563 q 842 244 854 308 q 789 128 831 179 q 694 42 747 76 q 576 -14 640 7 q 404 -47 494 -42 q 225 -28 314 -51 q 74 44 136 -6 q 45 72 58 57 q 21 104 32 86 l 3 133 q -14 164 -3 143 l -25 186 q -31 240 -39 213 q 3 281 -22 267 q 56 286 29 294 q 97 253 83 278 q 112 224 103 243 q 124 199 121 206 q 135 183 128 193 q 148 165 142 172 q 163 153 154 158 q 326 94 221 104 q 532 118 431 85 q 678 213 633 151 q 701 350 724 274 q 647 436 686 404 q 544 488 608 469 q 462 506 506 500 q 356 519 418 513 l 267 528 q 106 569 160 542 q 24 640 54 594 q 1 753 -6 686 q 42 849 7 794 q 94 918 67 890 q 260 1030 168 996 q 442 1054 351 1064 q 617 1010 533 1044 q 776 919 701 975 q 803 874 800 903 q 790 822 807 846 q 745 795 774 799 q 693 808 717 792 z "},"T":{"ha":924,"x_min":-44,"x_max":842,"o":"m 22 999 q 296 989 118 1001 q 556 978 474 976 q 617 983 586 978 q 692 995 649 988 q 763 1006 735 1003 q 815 992 792 1010 q 841 947 838 975 q 827 895 844 918 q 782 868 810 872 q 718 858 764 867 q 633 844 672 850 q 558 839 593 839 q 449 840 510 838 q 460 446 461 553 q 453 295 458 393 q 448 152 449 197 q 453 13 447 107 q 438 -39 456 -17 q 390 -64 419 -61 q 339 -49 361 -67 q 314 -1 317 -31 q 309 152 308 100 q 315 305 310 204 q 321 449 319 406 q 310 849 322 549 l 286 850 q 28 860 117 863 q -22 878 -1 858 q -44 927 -43 899 q -26 976 -46 956 q 22 999 -6 997 z "},"U":{"ha":958,"x_min":0,"x_max":876,"o":"m 140 913 q 140 735 142 871 q 140 521 138 599 q 156 319 143 399 q 190 200 168 233 q 288 114 225 149 q 422 71 350 79 q 556 85 494 63 q 656 157 618 107 q 738 501 728 253 q 718 900 744 678 q 733 951 715 929 q 780 977 751 974 q 831 963 808 981 q 857 917 853 944 q 876 496 883 683 q 767 74 865 204 q 607 -45 703 -11 q 406 -67 511 -79 q 218 -6 306 -56 q 76 122 129 43 q 18 299 36 182 q 1 517 4 388 q 1 730 -1 594 q 1 907 3 865 q 20 957 0 936 q 69 979 40 978 q 118 960 97 981 q 140 913 139 940 z "},"V":{"ha":839,"x_min":-18,"x_max":753,"o":"m 115 1001 l 214 669 q 335 235 300 386 q 353 174 338 221 l 376 219 q 399 282 394 258 q 419 365 410 335 q 475 515 432 401 q 525 658 508 603 l 551 750 q 589 871 572 822 q 624 965 604 918 q 662 1002 635 992 q 715 1001 689 1013 q 752 963 742 990 q 751 910 763 936 q 719 825 733 868 q 686 713 706 782 l 658 619 q 604 467 642 563 q 553 321 565 364 q 535 253 544 299 q 501 161 526 214 q 465 93 489 133 l 432 33 q 428 8 433 33 q 408 -35 421 -18 q 328 -65 378 -75 q 290 -46 306 -61 q 279 -33 285 -40 q 271 -18 275 -26 q 260 10 267 -7 l 235 82 q 199 204 206 172 q 81 635 164 356 l -18 963 q -12 1016 -26 990 q 30 1049 3 1042 q 83 1042 57 1057 q 115 1001 108 1028 z "},"W":{"ha":1329,"x_min":-17,"x_max":1243,"o":"m 114 989 q 215 653 179 822 q 244 482 225 607 q 275 322 261 376 l 289 269 l 296 289 q 468 824 371 492 l 493 911 l 504 951 q 508 965 507 961 q 511 972 510 969 q 514 979 513 976 q 519 989 517 985 q 565 1017 536 1013 q 638 994 606 1024 q 667 957 654 981 q 700 878 683 928 q 732 751 719 817 q 869 249 790 449 l 892 311 q 969 578 918 385 q 1057 857 1018 760 q 1085 926 1074 903 q 1103 963 1096 951 l 1113 990 q 1147 1030 1121 1017 q 1199 1034 1172 1043 q 1240 999 1226 1025 q 1243 946 1253 974 l 1219 875 l 1214 856 l 1213 850 q 1211 847 1211 849 q 1204 833 1210 842 q 1193 821 1200 826 l 1190 818 l 1185 807 q 1104 543 1150 717 q 1022 264 1051 344 q 1014 242 1021 261 l 999 196 q 982 150 990 172 q 951 78 964 104 q 935 47 943 60 q 918 29 926 38 q 869 10 897 10 q 817 32 839 10 q 804 47 810 38 q 792 71 799 56 q 768 122 782 90 l 763 136 q 758 151 760 144 q 753 165 756 158 q 749 176 750 171 q 746 184 747 181 q 744 190 744 188 q 743 193 743 192 q 596 726 657 407 q 590 749 594 735 q 426 242 500 440 q 383 131 401 175 q 351 61 365 85 q 332 31 340 42 q 313 13 322 19 q 253 0 285 -7 q 217 22 231 6 q 208 33 211 26 q 204 42 206 38 q 201 49 203 44 q 199 57 200 51 q 193 79 196 65 l 176 146 q 142 286 147 263 q 107 461 124 351 q 79 625 88 586 q -17 939 46 782 q -15 992 -26 965 q 23 1028 -4 1018 q 76 1028 50 1039 q 114 989 103 1017 z "},"X":{"ha":908,"x_min":-35,"x_max":826,"o":"m 347 503 q 190 740 267 639 q 15 925 113 842 q -9 972 -7 943 q 7 1023 -11 1001 q 54 1047 25 1044 q 104 1031 83 1049 q 439 621 278 883 l 690 951 q 735 978 707 974 q 787 966 764 983 q 815 920 810 949 q 801 868 819 892 l 515 493 l 608 336 q 696 204 639 286 q 808 60 753 122 q 826 10 828 39 q 803 -37 825 -18 q 753 -56 782 -57 q 706 -32 725 -54 q 564 150 628 54 q 424 375 500 246 l 88 -37 q 41 -62 69 -60 q -10 -47 13 -65 q -35 1 -32 -28 q -18 51 -37 29 l 347 503 z "},"Y":{"ha":890,"x_min":-6,"x_max":808,"o":"m 793 926 q 774 903 783 915 q 756 875 765 892 l 739 853 q 722 823 735 844 q 707 797 710 801 q 690 766 704 793 q 674 738 675 739 q 439 346 585 581 l 386 256 l 325 154 q 263 63 300 115 q 192 -31 226 10 q 144 -56 174 -53 q 94 -40 115 -58 q 69 8 72 -21 q 86 58 67 38 q 149 141 117 94 q 200 219 181 188 l 257 311 l 310 400 l 1 925 q -5 978 -12 950 q 28 1020 3 1006 q 81 1027 53 1035 q 124 994 108 1019 l 393 533 l 551 804 q 568 833 554 808 q 586 865 582 858 q 602 894 590 872 q 622 926 614 915 q 640 953 629 936 q 663 986 651 971 l 685 1015 q 732 1040 703 1038 q 783 1025 761 1043 q 808 978 806 1007 q 793 926 811 949 z "},"Z":{"ha":875,"x_min":-43,"x_max":793,"o":"m 93 96 l 93 94 l 93 96 m 13 989 q 342 1028 175 1019 q 501 1031 401 1031 q 649 1032 606 1031 l 650 1032 q 675 1039 654 1035 q 782 996 750 1056 q 785 939 794 968 q 776 919 782 929 q 758 892 769 907 l 710 831 l 628 739 l 399 497 q 188 250 269 358 q 128 160 161 214 q 110 131 118 143 q 133 132 118 131 q 157 133 147 133 q 732 129 535 151 q 778 103 760 125 q 792 52 796 81 q 767 6 789 24 q 715 -10 744 -12 q 163 -6 529 13 q 81 -8 92 -8 q -40 76 -15 0 q -40 132 -50 101 q -28 167 -36 147 q 8 232 -15 193 q 76 333 46 292 q 297 592 163 447 l 525 833 l 578 892 q 347 889 382 890 q 38 853 193 882 q -14 863 10 847 q -43 908 -37 879 q -33 960 -49 936 q 13 989 -17 983 z "},"[":{"ha":443,"x_min":28,"x_max":361,"o":"m 294 956 q 218 953 219 953 q 179 951 194 951 l 178 947 q 168 874 171 921 q 167 721 167 850 l 167 272 q 171 4 168 113 q 175 -85 172 -54 q 176 -94 176 -92 q 185 -99 179 -94 q 210 -109 192 -103 q 257 -118 229 -115 q 303 -144 285 -122 q 317 -195 321 -167 q 292 -242 314 -224 q 240 -257 269 -260 q 220 -255 238 -256 q 190 -253 203 -254 q 156 -245 178 -251 q 118 -231 135 -239 q 83 -206 101 -222 q 53 -167 65 -189 q 40 -128 44 -153 q 38 -94 39 -115 q 32 0 35 -60 q 28 271 29 100 l 28 721 q 29 882 28 854 q 44 983 33 943 q 103 1076 61 1050 q 116 1083 110 1081 q 125 1086 122 1086 l 129 1086 q 135 1088 132 1088 l 142 1088 q 161 1089 149 1089 q 213 1092 181 1090 q 289 1094 214 1092 q 339 1076 318 1096 q 361 1028 360 1057 q 343 978 363 999 q 294 956 324 957 z "},"\\":{"ha":511,"x_min":-112,"x_max":428,"o":"m 18 1007 q 85 821 19 1003 q 157 646 124 713 q 171 625 160 640 q 196 582 188 600 q 265 409 226 514 q 338 222 303 304 q 418 71 374 140 q 427 18 433 46 q 397 -25 421 -10 q 344 -34 372 -40 q 301 -4 317 -28 q 213 163 254 69 q 132 365 172 257 q 68 526 92 472 q 57 546 67 532 q 32 585 39 569 q -46 774 -3 653 q -112 957 -111 954 q -110 1010 -122 983 q -72 1047 -99 1036 q -19 1045 -46 1057 q 18 1007 7 1033 z "},"]":{"ha":383,"x_min":-60,"x_max":301,"o":"m 6 1068 q 117 1072 21 1069 q 185 1075 158 1075 q 207 1076 200 1076 l 215 1076 l 219 1076 l 224 1076 q 229 1075 226 1076 q 239 1074 235 1075 q 265 1058 253 1069 q 292 1008 285 1040 q 296 975 294 996 q 300 897 299 946 q 301 822 301 867 l 301 772 q 292 422 306 656 q 278 83 278 183 l 278 39 l 278 17 l 278 7 q 278 -4 278 -1 q 281 -24 279 -7 q 283 -67 282 -42 l 283 -69 q 284 -72 283 -71 q 286 -78 285 -72 q 290 -93 288 -83 q 272 -183 301 -147 q 231 -211 257 -203 q 201 -218 218 -217 q 147 -222 179 -222 l 117 -222 q 86 -222 100 -222 l 72 -221 q 24 -200 43 -221 q 4 -150 4 -179 q 25 -101 4 -121 q 75 -82 46 -82 q 88 -83 76 -82 q 115 -83 100 -83 l 144 -83 l 146 -83 q 144 -75 144 -79 q 142 -33 143 -51 q 140 -11 140 -14 q 139 3 139 -8 l 139 14 l 139 39 l 139 83 q 153 431 139 186 q 163 769 165 650 l 163 818 q 161 893 163 863 q 160 936 161 919 l 122 935 q 14 929 28 931 q -37 947 -15 928 q -60 994 -58 965 q -42 1045 -61 1024 q 6 1068 -24 1067 z "},"^":{"ha":669,"x_min":42,"x_max":585,"o":"m 51 640 l 233 921 q 234 923 233 922 q 235 926 235 924 q 237 934 235 928 q 243 950 239 940 q 338 1021 271 1025 q 425 944 403 1017 q 430 926 428 933 q 432 917 432 919 q 433 913 432 915 q 435 908 433 911 q 579 626 542 694 q 585 574 593 601 q 551 532 576 546 q 499 526 526 518 q 457 560 471 535 q 328 811 417 633 l 168 568 q 126 537 154 543 q 73 545 97 531 q 42 588 49 560 q 51 640 36 617 z "},"_":{"ha":811,"x_min":-50,"x_max":729,"o":"m 15 -39 q 182 -37 69 -36 q 338 -35 283 -39 q 490 -17 379 -32 q 660 -1 594 -1 q 709 -22 689 -1 q 729 -71 729 -42 q 709 -120 729 -100 q 660 -140 689 -140 q 510 -154 610 -140 q 346 -174 393 -171 q 181 -176 285 -178 q 24 -178 81 -175 q -27 -160 -6 -179 q -50 -112 -49 -140 q -32 -62 -51 -83 q 15 -39 -12 -40 z "},"`":{"ha":368,"x_min":-25,"x_max":286,"o":"m 94 1032 q 263 864 222 901 q 286 816 285 844 q 268 766 288 788 q 220 743 249 744 q 171 761 192 742 q -6 935 125 801 q -25 984 -25 956 q -4 1033 -25 1013 q 45 1053 17 1053 q 94 1032 74 1053 z "},"a":{"ha":714,"x_min":-25,"x_max":626,"o":"m 444 149 q 389 539 408 292 q 327 558 346 553 q 283 565 308 564 q 233 556 257 565 q 151 467 185 535 q 114 308 117 399 q 143 159 113 219 q 225 83 174 99 q 265 76 247 76 q 308 83 283 75 q 344 97 333 92 q 393 122 356 101 q 444 149 431 142 m 522 617 q 540 407 533 479 q 570 226 547 335 q 626 36 593 118 q 626 -17 638 10 q 589 -54 615 -43 q 536 -54 563 -65 q 499 -17 510 -43 l 486 13 l 436 -14 q 384 -37 418 -24 q 322 -56 350 -51 q 258 -60 294 -61 q 186 -50 222 -60 q 85 6 129 -33 q 19 96 42 44 q -15 202 -4 147 q -25 313 -26 257 q 31 537 -21 431 q 180 684 82 643 q 424 674 278 725 q 447 681 435 679 q 498 664 476 682 q 522 617 519 646 z "},"b":{"ha":789,"x_min":13,"x_max":707,"o":"m 151 40 l 151 18 q 131 -31 151 -11 q 82 -51 111 -51 q 33 -31 53 -51 q 13 18 13 -11 q 24 989 13 665 q 46 1037 25 1017 q 95 1056 67 1057 q 144 1033 124 1054 q 163 983 164 1013 q 154 588 156 801 q 267 632 192 611 q 567 611 450 683 q 707 342 693 535 q 654 121 715 214 q 468 -10 593 28 q 304 -25 371 -39 q 151 40 254 -14 m 151 401 l 151 189 q 175 183 164 188 q 236 153 204 169 l 288 125 q 332 111 308 115 q 429 124 365 104 q 568 331 581 169 q 494 493 560 454 q 303 499 429 533 q 228 469 247 483 q 169 414 222 465 q 151 401 161 407 z "},"c":{"ha":665,"x_min":-10,"x_max":583,"o":"m 468 424 q 353 508 401 481 q 263 528 304 536 q 176 449 215 518 q 129 278 133 374 q 161 132 125 185 q 260 92 193 85 q 315 107 283 93 q 364 133 346 121 l 428 174 q 481 183 451 189 q 524 153 508 178 q 533 101 539 129 q 503 57 528 72 q 483 44 501 56 l 458 28 l 433 11 q 403 -6 414 0 l 375 -19 q 342 -32 356 -28 l 308 -42 q 274 -47 290 -46 q 46 54 125 -61 q -10 285 -15 144 q 56 517 -3 413 q 235 664 125 642 q 276 669 256 668 q 317 665 296 669 l 354 658 q 392 643 371 654 q 426 626 413 632 q 460 606 439 621 l 489 586 q 517 565 497 581 q 539 547 536 549 q 560 529 542 544 q 583 481 581 510 q 566 431 585 453 q 519 408 547 410 q 468 424 490 406 z "},"d":{"ha":728,"x_min":-39,"x_max":646,"o":"m 501 185 q 499 310 500 228 q 497 433 497 393 q 253 500 360 546 q 169 432 206 481 q 113 319 132 383 q 101 201 96 254 q 131 115 106 147 q 340 106 186 44 q 501 185 429 142 m 615 971 q 615 868 614 924 q 619 776 617 813 q 625 672 621 739 q 631 575 629 606 q 638 313 635 489 q 646 42 640 135 q 628 -9 647 13 q 581 -32 610 -31 q 532 -15 553 -33 q 507 29 511 3 q 393 -22 454 1 q 174 -58 271 -72 q 21 31 78 -44 q -38 188 -29 94 q -21 358 -47 281 q 61 520 6 447 q 197 628 117 593 q 490 606 336 688 q 476 974 475 872 q 497 1022 476 1003 q 547 1042 518 1042 q 596 1021 576 1042 q 615 971 615 1000 z "},"e":{"ha":767,"x_min":40,"x_max":685,"o":"m 182 358 q 515 490 281 406 q 492 521 501 513 q 460 536 482 529 q 350 561 388 560 q 254 501 306 563 q 182 358 206 442 m 654 407 q 619 381 642 389 l 508 340 q 383 293 418 307 l 286 253 q 174 197 222 225 q 183 172 178 183 q 297 97 213 108 q 399 107 353 89 q 444 129 422 115 q 496 165 465 143 q 553 203 526 188 q 605 212 576 218 q 648 181 633 206 q 656 128 663 157 q 625 86 650 100 l 581 54 q 513 9 546 29 q 449 -24 479 -11 q 278 -42 371 -54 q 57 114 118 -19 q 40 364 8 219 q 147 589 69 493 q 353 700 240 703 q 504 669 411 699 q 570 634 540 657 q 613 594 600 611 q 647 545 626 578 q 672 506 667 513 q 684 453 689 482 q 656 408 679 425 l 654 407 z "},"f":{"ha":524,"x_min":-79,"x_max":442,"o":"m 361 881 q 273 888 299 890 q 233 865 247 885 q 211 744 218 843 q 206 651 207 701 l 281 661 q 333 649 310 667 q 360 603 356 632 q 348 552 365 575 q 303 525 331 529 q 206 511 264 518 l 206 506 q 225 76 207 368 q 208 26 226 47 q 160 3 189 4 q 109 20 131 1 q 86 68 88 39 q 67 492 69 356 q 3 482 32 488 q -50 493 -26 476 q -78 538 -74 510 q -67 590 -83 567 q -22 618 -50 614 q 67 632 17 625 q 72 756 68 703 q 117 940 83 889 q 166 992 138 972 q 219 1019 194 1011 q 276 1027 243 1026 q 327 1026 310 1028 q 371 1019 344 1024 q 383 1017 379 1018 q 428 990 411 1013 q 441 938 446 967 q 413 892 436 910 q 361 881 390 875 z "},"g":{"ha":753,"x_min":32,"x_max":665,"o":"m 522 572 q 362 568 418 576 q 260 515 306 560 q 215 440 236 493 q 186 325 193 386 q 194 225 181 263 q 231 175 207 188 q 357 204 261 161 q 418 235 388 218 l 482 271 l 522 294 q 532 299 526 297 q 522 572 535 425 m 657 635 q 665 171 682 374 q 614 -86 653 17 q 461 -262 561 -224 q 399 -280 433 -274 q 335 -287 364 -286 q 265 -287 306 -289 q 202 -283 224 -285 q 142 -276 181 -281 q 94 -271 103 -271 q 47 -244 65 -267 q 33 -194 29 -222 q 58 -147 36 -165 q 108 -132 81 -129 l 161 -139 q 219 -144 203 -143 l 272 -149 q 325 -150 306 -151 q 368 -145 344 -149 q 411 -135 392 -142 q 485 -36 454 -117 q 522 133 510 31 q 414 78 458 99 q 172 50 260 8 q 103 104 131 69 q 63 178 74 139 q 47 261 51 218 q 49 340 43 304 q 88 496 57 419 q 163 615 118 572 q 213 655 186 638 q 264 683 240 672 q 319 700 288 693 q 372 710 351 707 q 426 713 392 713 q 476 713 461 714 q 527 710 492 713 q 571 708 563 708 q 611 693 594 707 q 657 635 653 678 z "},"h":{"ha":754,"x_min":29,"x_max":668,"o":"m 189 421 q 182 72 182 107 q 162 23 182 43 q 113 3 142 3 q 63 23 83 3 q 43 72 43 43 q 49 352 43 156 q 52 687 56 549 q 29 953 49 825 q 41 1005 24 982 q 87 1033 58 1028 q 138 1020 115 1038 q 165 975 161 1003 q 192 638 189 829 q 254 694 225 672 q 333 736 283 717 q 432 754 382 756 q 604 657 550 751 q 646 481 643 592 q 639 307 649 421 q 633 186 631 211 q 636 161 635 171 q 642 136 638 150 l 647 117 q 658 90 650 110 q 668 61 665 71 q 665 8 678 33 q 626 -28 653 -18 q 573 -25 599 -37 q 538 14 547 -12 q 527 42 535 21 q 517 72 519 64 l 508 100 q 500 135 503 118 q 494 172 497 151 q 500 318 490 211 q 507 476 508 424 q 485 586 506 551 q 429 615 468 614 q 361 597 393 617 q 286 536 329 578 l 272 522 q 219 461 239 490 q 193 425 204 442 q 189 421 192 422 z "},"i":{"ha":333,"x_min":74,"x_max":251,"o":"m 233 596 q 232 446 229 546 q 232 286 235 335 q 222 157 231 240 q 213 50 214 74 q 188 3 210 22 q 138 -13 167 -15 q 91 10 110 -11 q 74 61 72 32 q 83 166 75 85 q 93 292 92 247 q 93 443 94 336 q 94 604 90 546 q 119 652 97 633 q 169 669 140 671 q 216 645 197 667 q 233 596 235 624 m 231 928 q 241 918 231 928 q 251 879 251 908 q 231 830 251 850 q 182 810 211 810 q 133 830 153 810 q 113 879 113 850 q 133 928 113 908 q 182 949 153 949 q 231 928 211 949 z "},"j":{"ha":319,"x_min":-149,"x_max":233,"o":"m 197 600 q 217 246 213 406 q 233 83 217 233 q 231 -104 244 -32 q 163 -262 208 -211 q 22 -303 103 -329 q -79 -226 -35 -285 q -149 -96 -124 -168 q -146 -42 -158 -68 q -106 -7 -133 -17 q -53 -10 -79 3 q -18 -49 -28 -22 q 22 -131 1 -100 q 60 -169 44 -161 q 94 -76 81 -146 q 94 69 104 -25 q 78 243 78 232 q 58 589 74 397 q 75 640 57 618 q 122 663 93 661 q 173 647 151 665 q 197 600 194 629 m 167 892 q 177 882 167 892 q 188 843 188 872 q 167 794 188 814 q 118 774 147 774 q 69 794 89 774 q 49 843 49 814 q 69 892 49 872 q 118 913 89 913 q 167 892 147 913 z "},"k":{"ha":643,"x_min":39,"x_max":560,"o":"m 178 942 q 186 481 188 751 l 253 539 q 415 685 372 640 q 465 706 436 706 q 514 685 493 706 q 535 637 535 665 q 515 588 535 608 q 342 432 467 539 l 329 421 q 442 247 369 363 l 550 76 q 560 24 565 53 q 531 -20 554 -4 q 478 -31 507 -36 q 433 -1 450 -25 l 225 328 l 186 285 l 183 283 q 182 44 182 131 q 162 -5 182 15 q 113 -25 142 -25 q 63 -5 83 -25 q 43 44 43 15 q 46 322 43 131 q 47 657 49 513 q 39 933 46 783 q 57 984 38 963 q 105 1007 76 1006 q 155 989 133 1008 q 178 942 176 969 z "},"l":{"ha":276,"x_min":32,"x_max":193,"o":"m 171 968 q 185 727 185 861 q 181 492 186 593 q 193 40 169 192 q 181 -12 199 11 q 135 -40 164 -35 q 84 -27 107 -44 q 57 18 61 -10 q 38 261 39 126 q 42 497 36 393 q 47 726 47 601 q 32 949 46 851 q 47 1001 29 978 q 92 1027 64 1024 q 144 1013 121 1031 q 171 968 167 996 z "},"m":{"ha":1050,"x_min":8,"x_max":967,"o":"m 824 581 q 799 578 808 578 q 697 551 742 575 q 578 469 653 526 q 579 381 581 429 q 547 51 576 211 q 519 7 543 24 q 467 -5 496 -10 q 422 24 439 0 q 411 76 406 47 q 440 383 436 219 q 431 543 443 488 q 418 579 425 567 q 393 571 408 576 q 318 521 363 556 q 238 454 283 496 q 174 399 176 400 l 171 396 q 147 17 167 263 q 123 -31 144 -12 q 72 -47 101 -49 q 25 -23 43 -44 q 8 28 7 -1 q 32 614 40 417 q 50 664 31 643 q 99 686 69 685 q 149 668 128 688 q 171 619 169 649 q 172 582 171 601 l 233 632 q 335 696 289 675 q 458 714 404 729 q 550 622 521 699 q 793 717 674 711 q 806 718 796 717 q 831 721 822 721 q 913 697 881 724 q 957 622 943 672 q 967 540 965 589 q 961 344 971 465 q 947 217 956 285 l 931 89 q 922 18 924 31 q 896 -28 918 -10 q 845 -42 874 -46 q 799 -17 817 -39 q 783 35 781 6 q 793 103 785 46 q 809 229 801 161 q 822 357 817 297 q 828 533 832 468 q 824 581 826 563 z "},"n":{"ha":735,"x_min":-18,"x_max":649,"o":"m 150 475 q 147 47 168 307 q 123 0 144 18 q 72 -16 101 -18 q 25 8 43 -14 q 8 58 7 29 q -18 629 38 429 q -12 681 -26 656 q 30 715 3 707 q 83 708 57 722 q 115 665 108 693 l 121 649 q 181 689 143 667 q 342 751 244 726 q 356 755 343 751 q 376 760 369 758 q 399 764 383 761 q 426 767 415 767 q 454 766 438 767 q 485 762 471 765 q 514 751 499 758 q 543 733 529 743 q 624 582 603 688 q 635 400 636 511 q 626 225 635 390 q 628 107 624 138 q 631 94 629 100 q 639 76 633 88 q 649 49 644 64 q 646 -5 658 21 q 606 -40 633 -31 q 552 -36 578 -49 q 518 4 526 -24 l 511 19 q 499 53 504 36 q 492 85 493 71 q 488 231 483 129 q 496 403 496 394 q 486 556 497 500 q 460 622 476 610 q 434 628 449 629 q 375 615 419 626 q 250 569 297 597 q 225 553 233 560 q 206 538 215 547 q 192 525 196 529 q 174 503 188 521 q 150 475 160 486 z "},"o":{"ha":736,"x_min":8,"x_max":654,"o":"m 269 685 q 292 688 281 688 l 304 688 q 381 684 351 686 q 458 667 410 682 q 542 626 506 653 q 613 545 586 593 q 649 444 640 497 q 653 340 657 392 q 636 238 650 288 q 536 49 606 132 q 369 -53 465 -35 q 226 -47 292 -68 q 118 20 161 -26 q 48 124 75 67 q 11 243 21 181 q 9 368 0 301 q 40 494 18 435 q 108 602 61 553 q 221 675 156 651 q 269 685 243 683 m 324 547 q 282 546 321 547 q 268 544 271 546 q 167 441 201 521 q 149 264 133 361 q 216 119 164 168 q 344 83 268 69 q 435 144 390 92 q 503 275 481 197 q 513 419 525 356 q 458 515 500 483 q 325 547 419 544 l 324 547 z "},"p":{"ha":747,"x_min":21,"x_max":665,"o":"m 161 33 q 178 -304 164 -151 q 162 -354 181 -332 q 115 -379 143 -376 q 64 -363 86 -382 q 39 -315 42 -344 q 21 141 22 -117 q 25 594 19 399 q 46 643 25 624 q 96 663 67 663 q 144 642 125 663 q 164 592 164 621 l 164 583 q 283 629 197 604 q 581 554 478 685 q 661 283 656 461 q 663 271 661 279 q 665 249 664 254 q 656 176 668 207 q 515 22 614 81 q 311 -19 418 -35 q 161 33 258 -12 m 526 229 l 526 236 q 525 254 526 239 q 522 281 522 269 q 472 468 518 410 q 322 496 426 525 q 239 465 253 476 q 189 407 235 463 q 161 388 176 393 q 160 183 160 271 q 175 179 167 182 q 235 153 204 168 q 288 129 267 138 q 331 117 308 121 q 445 142 388 110 q 526 229 503 175 z "},"q":{"ha":722,"x_min":-26,"x_max":640,"o":"m 483 207 q 492 476 483 357 q 368 515 415 507 q 246 492 290 528 q 173 399 210 463 q 121 267 136 335 q 171 85 89 125 q 261 79 210 65 q 303 92 282 83 q 349 117 324 101 l 389 142 l 438 175 l 483 207 m 640 569 q 623 297 625 438 q 625 -44 621 156 q 629 -325 629 -243 q 609 -374 629 -354 q 560 -394 589 -394 q 510 -374 531 -394 q 490 -325 490 -354 q 485 39 490 -303 q 294 -57 374 -36 q 203 -63 257 -67 q 110 -40 150 -60 q 28 25 60 -15 q -15 112 -4 65 q -26 204 -26 158 q -14 297 -25 250 q 53 470 6 386 q 160 600 101 554 q 389 653 251 674 q 515 617 444 643 q 578 646 539 650 q 625 619 607 642 q 640 569 643 597 z "},"r":{"ha":569,"x_min":32,"x_max":486,"o":"m 185 381 q 182 264 185 325 l 175 132 q 171 22 172 60 q 149 -26 169 -7 q 99 -44 128 -46 q 50 -22 69 -43 q 32 28 31 -1 l 39 178 q 46 347 44 297 q 44 484 47 397 q 32 640 42 571 q 47 692 29 669 q 92 719 64 715 q 144 705 121 722 q 171 660 167 688 q 178 589 175 625 q 406 703 274 676 q 457 692 433 708 q 486 648 481 676 q 476 596 492 619 q 431 567 460 572 q 295 507 353 551 q 186 382 238 463 l 185 381 z "},"s":{"ha":663,"x_min":-36,"x_max":569,"o":"m 492 621 q 440 617 485 621 q 375 610 396 613 q 317 601 354 607 q 251 588 281 594 q 129 497 136 556 q 128 489 128 493 l 128 482 l 128 478 q 129 475 128 476 q 179 449 138 464 q 192 445 181 449 q 240 431 204 442 q 308 411 276 421 q 382 387 351 399 q 454 353 413 375 q 525 299 496 332 q 569 225 554 267 q 554 75 599 143 q 453 -10 522 25 q 233 -61 350 -58 q 181 -58 207 -61 q 126 -44 154 -54 q 82 -28 97 -35 q 37 -8 67 -22 q 1 7 7 6 q -35 45 -25 18 q -35 99 -46 72 q 3 135 -24 125 q 57 135 31 146 q 97 117 68 129 l 136 100 q 166 89 146 96 q 201 80 186 82 q 231 78 215 78 q 392 115 317 79 q 438 150 426 132 q 439 178 444 161 q 388 232 428 208 q 269 278 347 256 q 133 318 139 315 q 14 397 46 349 q -10 514 -18 443 q 215 721 10 665 q 292 738 249 731 q 358 747 335 744 q 429 755 382 750 q 478 760 476 760 q 529 744 507 763 q 554 697 551 726 q 539 646 557 668 q 492 621 521 624 z "},"t":{"ha":453,"x_min":-128,"x_max":371,"o":"m 208 850 q 206 696 203 786 q 301 697 256 697 q 351 677 331 697 q 371 628 371 657 q 351 578 371 599 q 301 558 331 558 q 211 557 257 558 q 213 418 214 472 q 206 317 211 381 q 201 227 201 253 q 208 144 201 201 q 215 118 211 128 l 217 117 q 222 116 219 117 q 228 115 225 115 q 233 113 232 114 q 260 106 249 110 q 299 70 286 96 q 301 17 311 44 q 266 -22 292 -10 q 213 -25 240 -35 q 203 -22 210 -24 q 182 -18 183 -18 q 119 15 143 -8 q 72 117 86 46 q 63 223 64 186 q 68 331 63 260 q 74 421 74 403 q 72 553 75 475 q -54 547 15 551 q -105 565 -83 546 q -128 613 -126 585 q -110 663 -129 642 q -62 686 -90 685 q 67 692 18 690 q 69 861 64 789 q 94 908 72 890 q 144 924 115 926 q 192 901 174 922 q 208 850 210 879 z "},"u":{"ha":738,"x_min":-4,"x_max":656,"o":"m 151 639 q 135 336 133 460 q 147 172 135 236 q 169 103 156 119 q 193 96 182 99 q 267 89 225 90 q 342 93 307 88 l 374 100 q 400 133 379 103 q 494 469 485 260 q 500 571 497 533 q 503 621 501 603 q 506 642 504 633 q 510 654 507 649 q 515 668 511 661 q 546 697 526 688 q 628 685 592 719 q 650 647 644 669 q 656 606 656 631 q 651 517 657 574 l 649 481 q 645 446 647 461 q 642 418 643 431 q 640 398 640 406 q 639 389 639 390 q 644 36 625 238 q 629 -15 647 7 q 582 -40 611 -37 q 531 -25 553 -43 q 506 22 508 -7 l 504 40 q 446 -19 476 0 q 360 -44 417 -37 q 264 -50 315 -51 q 167 -40 210 -49 q 76 -1 107 -28 q 10 149 29 42 q -4 335 -4 224 q 13 653 -4 486 q 38 700 15 682 q 90 715 61 718 q 136 690 118 713 q 151 639 154 667 z "},"v":{"ha":674,"x_min":4,"x_max":588,"o":"m 193 -12 l 169 67 q 94 300 154 117 q 4 599 31 494 q 10 651 -4 626 q 53 684 25 676 q 106 678 81 692 q 138 635 131 663 q 183 479 157 560 l 242 297 l 292 143 q 363 354 308 189 q 460 611 417 519 q 499 646 472 636 q 552 643 526 656 q 588 603 578 631 q 585 550 597 576 q 494 311 544 467 q 406 54 432 119 q 374 -21 400 39 q 372 -24 372 -22 l 372 -28 q 371 -35 372 -29 q 367 -53 369 -42 q 279 -133 349 -132 q 204 -87 226 -135 q 193 -42 194 -68 l 193 -28 l 193 -17 l 193 -12 z "},"w":{"ha":972,"x_min":-14,"x_max":886,"o":"m 122 626 l 153 446 q 183 293 163 389 q 229 121 204 197 l 231 117 l 257 189 q 331 418 310 342 q 349 510 335 438 q 358 550 354 538 q 365 572 361 563 q 379 592 371 583 q 439 615 403 618 q 499 575 478 611 q 511 546 506 563 q 525 485 518 525 q 553 317 533 442 q 582 151 571 200 q 589 124 586 136 q 601 158 593 138 q 660 340 624 224 l 697 469 l 736 592 q 756 657 750 640 q 791 697 765 685 q 844 700 817 710 q 883 665 871 690 q 886 613 896 639 q 867 549 881 596 l 831 428 l 792 299 q 732 113 750 165 q 707 46 718 71 q 694 19 700 31 q 667 -12 682 -1 q 587 -36 631 -36 q 510 -12 543 -36 q 465 51 482 6 q 447 121 456 78 q 424 249 436 167 l 388 143 q 333 4 357 56 q 308 -47 319 -28 q 292 -71 300 -61 q 238 -97 268 -94 q 153 -51 188 -100 q 124 3 138 -31 q 96 79 113 26 q 48 263 71 160 q 15 422 25 365 q -14 604 6 479 q -2 656 -19 633 q 44 684 15 679 q 95 672 72 689 q 122 626 118 654 z "},"x":{"ha":665,"x_min":-19,"x_max":582,"o":"m 307 228 q 108 -51 178 69 q 67 -84 94 -76 q 14 -77 39 -92 q -19 -35 -11 -62 q -11 18 -26 -7 q 225 347 65 151 q 44 569 133 475 q 25 619 24 590 q 47 667 26 647 q 97 686 68 688 q 144 664 125 685 q 315 458 231 575 q 439 615 394 554 q 484 642 456 638 q 535 630 513 647 q 563 584 558 613 q 550 532 568 556 q 399 340 494 457 l 572 72 q 581 19 588 47 q 551 -24 575 -8 q 499 -33 526 -39 q 456 -3 471 -26 l 307 228 z "},"y":{"ha":713,"x_min":-33,"x_max":625,"o":"m 625 592 q 560 450 604 536 l 493 321 q 467 258 468 267 q 436 169 460 229 q 144 -306 350 -47 q 98 -331 126 -328 q 47 -317 69 -335 q 22 -270 25 -299 q 36 -219 18 -242 q 221 46 151 -74 l 163 150 q 92 289 115 232 q 56 376 81 314 q 14 477 32 438 q -25 554 -4 517 q -33 607 -40 579 q 0 649 -25 635 q 53 656 25 664 q 94 624 81 649 q 140 537 119 582 q 186 425 160 492 l 219 342 q 283 218 240 294 l 297 194 l 308 219 q 331 288 326 268 q 368 379 336 310 q 436 514 372 389 q 497 642 476 593 q 533 681 507 669 q 587 681 560 692 q 625 644 614 671 q 625 592 636 618 z "},"z":{"ha":750,"x_min":-15,"x_max":668,"o":"m 54 663 q 157 667 85 663 q 268 669 229 671 q 492 674 433 667 q 517 683 492 675 q 561 692 540 693 q 632 650 608 690 q 639 594 647 624 q 633 582 636 589 l 628 574 q 622 567 625 571 l 610 551 l 576 514 l 526 460 q 242 157 315 240 l 275 158 q 603 161 497 167 q 651 138 632 160 q 668 88 669 117 q 645 40 667 58 q 594 22 624 21 q 281 19 510 28 q 142 14 217 17 q 97 11 110 11 l 85 11 l 78 11 l 71 11 l 60 14 q 46 19 51 17 q 15 54 25 32 q 14 103 6 78 q 18 115 15 110 l 24 124 q 29 131 26 126 l 43 146 l 79 186 l 129 240 q 400 529 211 335 q 265 531 376 528 q 164 528 235 532 q 54 524 89 524 q 5 544 25 524 q -15 593 -15 564 q 5 642 -15 622 q 54 663 25 663 z "},"{":{"ha":435,"x_min":-61,"x_max":349,"o":"m 313 974 q 289 964 303 968 l 282 961 q 272 957 275 958 q 258 950 261 953 q 218 817 221 918 q 221 715 217 785 q 222 611 224 643 q 132 371 214 454 q 174 336 163 349 q 225 243 206 304 q 238 187 233 214 q 243 131 243 160 q 242 85 243 101 q 238 38 242 68 q 235 0 235 7 q 238 -89 231 -50 q 276 -174 246 -128 q 286 -226 292 -199 q 256 -270 281 -254 q 204 -281 232 -286 q 160 -251 176 -275 q 102 -120 114 -182 q 96 11 90 -58 q 100 52 97 24 q 103 92 103 81 q 104 126 104 104 q 101 165 104 147 q 92 201 99 182 q 75 239 83 232 q 67 247 71 243 q 51 258 63 250 q 24 279 39 267 q 21 281 22 281 q 18 281 19 281 l 11 285 q -4 293 6 288 q -61 386 -67 326 q -19 453 -57 431 q 21 468 -3 463 l 33 471 q 83 619 78 517 q 82 708 85 644 q 79 821 78 783 q 167 1056 83 982 q 221 1086 188 1074 q 240 1093 222 1086 q 254 1099 250 1097 q 306 1101 279 1111 q 346 1066 333 1092 q 349 1013 358 1040 q 313 974 339 986 z "},"|":{"ha":265,"x_min":25,"x_max":183,"o":"m 161 1046 q 183 751 181 918 q 182 463 186 585 q 183 160 182 413 q 179 -142 183 -92 q 157 -190 178 -171 q 107 -208 136 -210 q 58 -186 78 -207 q 40 -136 39 -165 q 44 164 46 -85 q 43 463 43 413 q 44 749 47 592 q 25 1026 42 907 q 38 1078 21 1054 q 83 1105 54 1101 q 135 1092 111 1108 q 161 1046 158 1075 z "},"}":{"ha":539,"x_min":-18,"x_max":457,"o":"m 72 1085 q 271 843 243 1018 q 281 707 278 803 q 290 582 283 624 q 325 475 304 501 q 360 449 333 465 l 381 443 q 422 426 406 438 q 457 349 463 397 q 407 282 450 301 q 364 272 389 274 q 358 272 363 272 q 351 271 354 271 q 329 242 340 260 q 309 186 315 215 q 302 139 303 157 q 302 78 301 121 q 301 15 303 36 q 266 -140 300 -71 q 138 -267 232 -208 q 86 -276 114 -282 q 43 -245 58 -269 q 34 -193 28 -221 q 65 -150 40 -165 q 144 -74 125 -111 q 163 18 163 -37 q 162 72 163 24 q 163 148 161 121 q 176 222 165 175 q 207 306 186 268 q 244 360 224 338 q 217 389 228 374 q 154 557 174 443 q 142 703 144 610 q 135 819 140 786 q 103 901 126 869 q 22 957 78 933 q -17 993 -6 967 q -17 1047 -28 1019 q 19 1085 -7 1074 q 72 1085 46 1096 z "},"~":{"ha":750,"x_min":-14,"x_max":664,"o":"m -6 510 q 146 651 67 628 q 353 583 242 678 l 383 551 q 396 540 392 543 q 475 528 444 513 q 535 606 507 544 q 574 642 547 632 q 626 641 600 653 q 663 603 653 629 q 663 550 674 576 q 538 404 614 442 q 326 421 440 356 q 283 457 306 432 q 261 478 264 476 q 183 517 208 524 q 114 438 157 510 q 71 406 99 414 q 19 414 43 399 q -13 457 -6 429 q -6 510 -21 485 z "},"":{"ha":349,"x_min":39,"x_max":263,"o":"m 261 924 q 214 814 244 888 l 168 700 q 128 664 156 674 q 75 666 101 654 q 39 705 49 678 q 40 758 29 732 q 88 870 58 796 q 133 979 118 944 q 172 1016 146 1006 q 225 1015 199 1026 q 262 976 251 1003 q 261 924 272 950 z "},"":{"ha":335,"x_min":29,"x_max":247,"o":"m 247 917 l 206 803 q 157 679 175 721 q 119 642 146 653 q 67 642 93 631 q 29 679 40 653 q 29 732 18 706 q 76 855 47 775 q 119 969 106 935 q 156 1007 129 996 q 209 1008 182 1018 q 247 971 236 997 q 247 917 258 944 z "},"":{"ha":526,"x_min":-11,"x_max":442,"o":"m -11 715 q 72 958 38 874 q 108 996 82 985 q 162 997 135 1007 q 200 960 189 986 q 200 906 211 933 q 122 674 176 847 q 88 633 114 647 q 35 628 63 619 q -6 662 8 636 q -11 715 -19 688 m 225 692 q 269 851 240 749 l 308 982 q 342 1024 317 1010 q 394 1029 367 1038 q 436 996 422 1021 q 442 943 450 971 l 403 814 q 358 656 374 713 q 326 613 351 628 q 274 606 301 599 q 231 639 246 614 q 225 692 217 664 z "},"":{"ha":508,"x_min":-17,"x_max":424,"o":"m 204 913 q 158 811 185 874 l 113 700 q 74 663 101 674 q 21 664 47 653 q -17 703 -6 675 q -15 756 -26 729 l 29 864 q 82 976 57 931 q 123 1011 96 1003 q 176 1006 150 1019 q 210 965 201 992 q 204 913 218 938 m 418 889 q 326 689 381 815 q 288 652 315 663 q 235 653 261 642 q 198 691 208 664 q 199 744 188 718 q 296 953 254 875 q 336 987 308 978 q 389 983 364 996 q 423 942 414 969 q 418 889 432 914 z "},"":{"ha":1389,"x_min":0,"x_max":0,"o":""}}}
